<?xml version="1.0" encoding="UTF-8"?>
<svg xmlns="http://www.w3.org/2000/svg" width="60" height="60" viewBox="0 0 60 60">
  <rect width="60" height="60" rx="8" fill="#0176D3"/>
  <!-- Gear / configure -->
  <path d="M30 18.5l2.1.6.9-1.9 3.4 2-.4 2.1 1.5 1.5 2.1-.4 2 3.4-1.9.9.6 2.1-.6 2.1 1.9.9-2 3.4-2.1-.4-1.5 1.5.4 2.1-3.4 2-.9-1.9-2.1.6-2.1-.6-.9 1.9-3.4-2 .4-2.1-1.5-1.5-2.1.4-2-3.4 1.9-.9-.6-2.1.6-2.1-1.9-.9 2-3.4 2.1.4 1.5-1.5-.4-2.1 3.4-2 .9 1.9z"
        fill="#FFFFFF" opacity="0.85"/>
  <circle cx="30" cy="30" r="6.5" fill="#0176D3"/>
  <circle cx="30" cy="30" r="3" fill="#FFFFFF"/>
</svg>
